<?xml version="1.0" encoding="UTF-8"?>
<!DOCTYPE svg PUBLIC "-//W3C//DTD SVG 1.1//EN" "http://www.w3.org/Graphics/SVG/1.1/DTD/svg11.dtd">
<!-- Creator: CorelDRAW 2021 (64-Bit) -->
<svg xmlns="http://www.w3.org/2000/svg" xml:space="preserve" width="50mm" height="50mm" version="1.1" style="shape-rendering:geometricPrecision; text-rendering:geometricPrecision; image-rendering:optimizeQuality; fill-rule:evenodd; clip-rule:evenodd"
viewBox="0 0 5000 5000"
 xmlns:xlink="http://www.w3.org/1999/xlink"
 xmlns:xodm="http://www.corel.com/coreldraw/odm/2003">
 <defs>
  <style type="text/css">
   <![CDATA[
    .fil0 {fill:#727376}
    .fil1 {fill:#F37435}
   ]]>
  </style>
 </defs>
 <g id="Camada_x0020_1">
  <metadata id="CorelCorpID_0Corel-Layer"/>
  <g id="_2316892072592">
   <path class="fil0" d="M2500.06 3363.36c55.18,0.85 118.85,-36.96 185.77,-152.42l696.85 -1406.88c28.36,-57.47 5.11,-126.93 -52.36,-155.4 -57.46,-28.38 -126.86,-4.97 -155.43,52.39l-640.04 1297.62c-11.43,17.01 -22.2,23.29 -34.79,23.71l-0.17 -0.02c-12.53,-0.41 -23.36,-6.68 -34.76,-23.69l-640.04 -1297.62c-28.57,-57.37 -97.97,-80.75 -155.43,-52.39 -57.47,28.46 -80.68,97.94 -52.36,155.4l696.88 1406.88c66.85,115.45 130.56,153.28 185.7,152.43l0.18 -0.01z"/>
   <path class="fil1" d="M2499.6 2724.67c9.85,-0.95 24.06,-6.91 35.03,-25.64l483.17 -992.52 0.56 -1.37c10.66,-19.51 12.45,-32.66 8.33,-44.55l-0.21 -0.5c-4.48,-8.69 -16.41,-21.02 -38.81,-23.49l-488.07 0 0.81 0 -488.1 0c-22.44,2.46 -34.33,14.82 -38.81,23.49l-0.17 0.5c-4.16,11.88 -2.37,25.05 8.32,44.55l0.57 1.37 481.86 992c10.93,18.68 26.49,25.21 36.33,26.16l-0.81 0z"/>
  </g>
 </g>
</svg>
